<svg width="70" height="86" viewBox="0 0 70 86" fill="none" xmlns="http://www.w3.org/2000/svg">
<path d="M43.75 0H8.75C6.42936 0 4.20376 0.906068 2.56282 2.51888C0.921872 4.13169 0 6.31914 0 8.6V77.4C0 79.6809 0.921872 81.8683 2.56282 83.4811C4.20376 85.0939 6.42936 86 8.75 86H61.25C63.5706 86 65.7962 85.0939 67.4372 83.4811C69.0781 81.8683 70 79.6809 70 77.4V25.8L43.75 0Z" fill="#B5CFFF"/>
<path d="M43 0V27H70" stroke="white" stroke-width="2" stroke-linejoin="round"/>
<path d="M52.8364 47.3047H17.8364" stroke="white" stroke-width="2" stroke-linecap="round" stroke-linejoin="round"/>
<path d="M52.8364 64.502H17.8364" stroke="white" stroke-width="2" stroke-linecap="round" stroke-linejoin="round"/>
<path d="M26.5864 30.1035H22.2114H17.8364" stroke="white" stroke-width="2" stroke-linecap="round" stroke-linejoin="round"/>
</svg>
