<svg width="30" height="30" viewBox="0 0 30 30" fill="none" xmlns="http://www.w3.org/2000/svg">
<path d="M19 24V22C19 20.9391 18.5786 19.9217 17.8284 19.1716C17.0783 18.4214 16.0609 18 15 18H8C6.93913 18 5.92172 18.4214 5.17157 19.1716C4.42143 19.9217 4 20.9391 4 22V24" stroke="#767676" stroke-width="1.5" stroke-linecap="round" stroke-linejoin="round"/>
<path d="M11.5 14C13.7091 14 15.5 12.2091 15.5 10C15.5 7.79086 13.7091 6 11.5 6C9.29086 6 7.5 7.79086 7.5 10C7.5 12.2091 9.29086 14 11.5 14Z" stroke="#767676" stroke-width="1.5" stroke-linecap="round" stroke-linejoin="round"/>
<path d="M20 14L22 16L26 12" stroke="#767676" stroke-width="1.5" stroke-linecap="round" stroke-linejoin="round"/>
</svg>
