<svg width="16" height="22" viewBox="0 0 16 22" fill="none" xmlns="http://www.w3.org/2000/svg">
<path d="M8 1C11.9069 1 15 4.03116 15 7.7002C15 8.93358 14.5667 10.3949 13.8438 11.9482C13.1271 13.488 12.1611 15.0427 11.1807 16.4414C10.2024 17.837 9.22207 19.0589 8.48535 19.9326C8.30801 20.1429 8.14508 20.3331 8 20.5C7.85492 20.3331 7.69199 20.1429 7.51465 19.9326C6.77793 19.0589 5.79762 17.837 4.81934 16.4414C3.83887 15.0427 2.87294 13.488 2.15625 11.9482C1.43328 10.3949 1.00005 8.93358 1 7.7002C1 4.03116 4.09306 1 8 1ZM8 3.9502C5.90694 3.9502 4.14258 5.59423 4.14258 7.7002C4.14269 9.80607 5.90701 11.4502 8 11.4502C10.093 11.4502 11.8573 9.80607 11.8574 7.7002C11.8574 5.59423 10.0931 3.9502 8 3.9502Z" stroke="#8B8B8B" stroke-width="2"/>
</svg>
