<svg width="20" height="20" viewBox="0 0 20 20" fill="none" xmlns="http://www.w3.org/2000/svg">
<path d="M10 1C12.2091 1 14 2.79084 14 5C14 7.2092 12.2091 9 10 9C7.79088 9 6 7.2092 6 5C6.00005 2.79084 7.7909 1 10 1Z" stroke="#8B8B8B" stroke-width="2"/>
<path d="M10 12.25C11.5437 12.25 13.9175 12.6455 15.8799 13.4316C16.8601 13.8243 17.6749 14.2898 18.2285 14.8008C18.7754 15.3055 19 15.786 19 16.25V19H1V16.25C1.00003 15.786 1.22461 15.3055 1.77148 14.8008C2.32514 14.2898 3.13992 13.8243 4.12012 13.4316C6.08248 12.6455 8.45626 12.25 10 12.25Z" stroke="#8B8B8B" stroke-width="2"/>
</svg>
