<svg width="24" height="25" viewBox="0 0 24 25" fill="none" xmlns="http://www.w3.org/2000/svg">
<path d="M12 13.5413C12.5523 13.5413 13 13.075 13 12.4997C13 11.9244 12.5523 11.458 12 11.458C11.4477 11.458 11 11.9244 11 12.4997C11 13.075 11.4477 13.5413 12 13.5413Z" stroke="#222222" stroke-width="2" stroke-linecap="round" stroke-linejoin="round"/>
<path d="M19 13.5413C19.5523 13.5413 20 13.075 20 12.4997C20 11.9244 19.5523 11.458 19 11.458C18.4477 11.458 18 11.9244 18 12.4997C18 13.075 18.4477 13.5413 19 13.5413Z" stroke="#222222" stroke-width="2" stroke-linecap="round" stroke-linejoin="round"/>
<path d="M5 13.5413C5.55228 13.5413 6 13.075 6 12.4997C6 11.9244 5.55228 11.458 5 11.458C4.44772 11.458 4 11.9244 4 12.4997C4 13.075 4.44772 13.5413 5 13.5413Z" stroke="#222222" stroke-width="2" stroke-linecap="round" stroke-linejoin="round"/>
</svg>
