<svg width="14" height="21" viewBox="0 0 14 21" fill="none" xmlns="http://www.w3.org/2000/svg">
<path d="M7 1.98242C10.3177 1.98242 13 4.66471 13 7.98242C13 9.09256 12.6237 10.4118 11.9932 11.8193C11.3685 13.2137 10.527 14.6227 9.6709 15.8916C8.8167 17.1576 7.96075 18.2669 7.31738 19.0596C7.20487 19.1982 7.09806 19.3262 7 19.4443C6.90194 19.3262 6.79513 19.1982 6.68262 19.0596C6.03925 18.2669 5.1833 17.1576 4.3291 15.8916C3.47301 14.6227 2.63153 13.2137 2.00684 11.8193C1.37628 10.4118 1 9.09256 1 7.98242C1 4.66471 3.68228 1.98242 7 1.98242ZM7 4.48242C5.06772 4.48242 3.5 6.05014 3.5 7.98242C3.5 9.91471 5.06772 11.4824 7 11.4824C8.93228 11.4824 10.5 9.91471 10.5 7.98242C10.5 6.05014 8.93228 4.48242 7 4.48242Z" stroke="#8B8B8B" stroke-width="2"/>
</svg>
