<svg width="24" height="26" viewBox="0 0 24 26" fill="none" xmlns="http://www.w3.org/2000/svg">
<path d="M12 14.5238C12.5523 14.5238 13 14.0574 13 13.4821C13 12.9068 12.5523 12.4404 12 12.4404C11.4477 12.4404 11 12.9068 11 13.4821C11 14.0574 11.4477 14.5238 12 14.5238Z" stroke="#222222" stroke-width="2" stroke-linecap="round" stroke-linejoin="round"/>
<path d="M19 14.5238C19.5523 14.5238 20 14.0574 20 13.4821C20 12.9068 19.5523 12.4404 19 12.4404C18.4477 12.4404 18 12.9068 18 13.4821C18 14.0574 18.4477 14.5238 19 14.5238Z" stroke="#222222" stroke-width="2" stroke-linecap="round" stroke-linejoin="round"/>
<path d="M5 14.5238C5.55228 14.5238 6 14.0574 6 13.4821C6 12.9068 5.55228 12.4404 5 12.4404C4.44772 12.4404 4 12.9068 4 13.4821C4 14.0574 4.44772 14.5238 5 14.5238Z" stroke="#222222" stroke-width="2" stroke-linecap="round" stroke-linejoin="round"/>
</svg>
