<svg width="20" height="21" viewBox="0 0 20 21" fill="none" xmlns="http://www.w3.org/2000/svg">
<path d="M10 1.63281C12.2091 1.63281 14 3.42365 14 5.63281C14 7.84201 12.2091 9.63281 10 9.63281C7.79088 9.63281 6 7.84201 6 5.63281C6.00005 3.42365 7.7909 1.63281 10 1.63281Z" stroke="#8B8B8B" stroke-width="2"/>
<path d="M10 12.8828C11.5437 12.8828 13.9175 13.2783 15.8799 14.0645C16.8601 14.4572 17.6749 14.9226 18.2285 15.4336C18.7754 15.9383 19 16.4189 19 16.8828V19.6328H1V16.8828C1.00003 16.4189 1.22461 15.9383 1.77148 15.4336C2.32514 14.9226 3.13992 14.4572 4.12012 14.0645C6.08248 13.2783 8.45626 12.8828 10 12.8828Z" stroke="#8B8B8B" stroke-width="2"/>
</svg>
